<svg width="35" height="23" viewBox="0 0 35 23" fill="none" xmlns="http://www.w3.org/2000/svg">
<path d="M17.3371 19.2351C19.0106 17.1249 20.5111 15.2471 21.9988 13.3582C24.4351 10.2644 26.8152 7.12432 29.318 4.08569C30.3615 2.81883 31.6528 1.75279 32.8501 0.615085C33.3641 0.126443 34.0256 -0.300176 34.6451 0.279228C35.3332 0.922191 34.9 1.62392 34.3648 2.16061C28.6055 7.93406 24.654 15.0811 19.6439 21.4243C18.1674 23.2935 16.924 23.537 15.0973 21.9544C14.5117 21.4645 13.9628 20.9326 13.4549 20.3629C9.89154 16.2227 6.29397 12.1096 2.83023 7.8875C1.71812 6.53192 0.95236 4.88754 0.0869334 3.34229C-0.0603625 3.0789 -0.000748508 2.38484 0.119535 2.34365C0.561167 2.19111 1.20716 2.02406 1.52724 2.23609C2.78613 3.07075 4.10926 3.90236 5.11816 5.00066C7.55339 7.65158 9.81914 10.4568 12.1659 13.1888C13.5461 14.7959 14.9538 16.3793 16.3419 17.9797C16.6449 18.3298 16.9189 18.7065 17.3371 19.2351Z" fill="#FCB321"/>
</svg>
