<svg width="21" height="20" viewBox="0 0 21 20" fill="none" xmlns="http://www.w3.org/2000/svg">
<path d="M13 8.33325C13 11.0947 10.7614 13.3333 8 13.3333C7.01608 13.3333 6.09853 13.049 5.32498 12.5583L3 13.3333L3.77499 11.0083C3.2842 10.2347 3 9.31717 3 8.33325C3 5.57183 5.23858 3.33325 8 3.33325C10.7614 3.33325 13 5.57183 13 8.33325Z" stroke="#2D2C2E" stroke-width="1.2" stroke-linecap="round" stroke-linejoin="round"/>
<path d="M8.28174 13.3247C8.96568 15.2713 10.82 16.6667 13.0003 16.6667C13.9842 16.6667 14.9018 16.3826 15.6753 15.8917L18.0003 16.6667L17.2253 14.3417L17.3436 14.1454C17.7615 13.4149 18.0003 12.5687 18.0003 11.6667C18.0003 8.90533 15.7617 6.66675 13.0003 6.66675L12.8128 6.6702L12.7188 6.6752" stroke="#2D2C2E" stroke-width="1.2" stroke-linecap="round" stroke-linejoin="round"/>
</svg>
