<svg width="20" height="20" viewBox="0 0 20 20" fill="none" xmlns="http://www.w3.org/2000/svg">
<circle cx="10" cy="9.99984" r="8.33333" fill="#ACABB0"/>
<path d="M12.7693 6.46383C12.9808 6.25229 13.3238 6.25229 13.5353 6.46383C13.7468 6.67536 13.7468 7.01832 13.5353 7.22986L7.23028 13.5349C7.01874 13.7464 6.67578 13.7464 6.46425 13.5349C6.25271 13.3234 6.25271 12.9804 6.46425 12.7689L12.7693 6.46383Z" fill="white"/>
<path d="M6.46413 6.4644C6.67567 6.25287 7.01863 6.25287 7.23016 6.4644L13.5352 12.7694C13.7467 12.981 13.7467 13.3239 13.5352 13.5355C13.3237 13.747 12.9807 13.747 12.7692 13.5355L6.46413 7.23043C6.2526 7.0189 6.2526 6.67594 6.46413 6.4644Z" fill="white"/>
</svg>
