<svg width="21" height="11" viewBox="0 0 21 11" fill="none" xmlns="http://www.w3.org/2000/svg">
<path d="M5.904 1.416C5.936 1.32 6.024 1.272 6.168 1.272C6.256 1.272 6.32 1.292 6.36 1.332C6.4 1.372 6.432 1.48 6.456 1.656C6.488 1.824 6.504 2.044 6.504 2.316C6.512 2.58 6.516 2.984 6.516 3.528V5.196L7.152 4.92C7.792 4.648 8.112 4.572 8.112 4.692C8.112 4.796 7.836 5.008 7.284 5.328L6.516 5.784V7.824C6.516 8.632 6.508 9.184 6.492 9.48C6.476 9.784 6.44 9.976 6.384 10.056C6.264 10.216 6.18 10.224 6.132 10.08C6.06 9.816 6.016 8.42 6 5.892C5.992 3.148 5.964 1.736 5.916 1.656C5.868 1.584 5.864 1.504 5.904 1.416ZM4.284 3.636C4.628 3.204 4.844 3.072 4.932 3.24C4.94 3.248 4.948 3.26 4.956 3.276C5.012 3.436 4.728 3.848 4.104 4.512C3.712 4.912 3.516 5.136 3.516 5.184C3.516 5.224 3.736 5.448 4.176 5.856C4.352 6.008 4.504 6.156 4.632 6.3C4.768 6.444 4.836 6.536 4.836 6.576C4.836 6.728 4.62 6.652 4.188 6.348C4.084 6.276 3.964 6.188 3.828 6.084C3.38 5.756 3.116 5.592 3.036 5.592C2.964 5.592 2.78 5.72 2.484 5.976C1.764 6.64 1.24 7.092 0.912 7.332C0.592 7.572 0.396 7.656 0.324 7.584C0.252 7.512 0.34 7.392 0.588 7.224C0.86 7.016 1.488 6.436 2.472 5.484C3.456 4.532 4.06 3.916 4.284 3.636ZM13.4301 0.456C13.5021 0.368 13.5661 0.335999 13.6221 0.36C13.6861 0.375999 13.7621 0.451999 13.8501 0.588C13.9221 0.7 13.9661 0.872 13.9821 1.104C14.0061 1.336 14.0181 1.836 14.0181 2.604C14.0181 3.78 14.0301 4.368 14.0541 4.368C14.0701 4.368 14.3141 4.26 14.7861 4.044C15.3381 3.78 15.6261 3.68 15.6501 3.744C15.6581 3.752 15.6621 3.764 15.6621 3.78C15.6621 3.828 15.5381 3.952 15.2901 4.152C15.0421 4.344 14.7701 4.54 14.4741 4.74C14.2741 4.86 14.1381 4.96 14.0661 5.04C14.0021 5.12 13.9581 5.22 13.9341 5.34C13.9261 5.388 13.9061 5.516 13.8741 5.724C13.8501 5.932 13.8301 6.088 13.8141 6.192C13.7661 6.56 13.7021 6.756 13.6221 6.78C13.5261 6.812 13.4621 6.744 13.4301 6.576C13.3821 6.352 13.3781 5.912 13.4181 5.256C13.4661 4.448 13.4901 3.528 13.4901 2.496C13.4901 1.456 13.4661 0.875999 13.4181 0.756C13.3701 0.644 13.3741 0.544 13.4301 0.456ZM11.2221 3.192C11.9981 2.856 12.4101 2.82 12.4581 3.084C12.4741 3.18 12.3101 3.496 11.9661 4.032C11.6221 4.568 11.3821 4.876 11.2461 4.956C11.1261 5.028 11.0661 5.088 11.0661 5.136C11.0661 5.184 11.2341 5.28 11.5701 5.424C11.9141 5.592 12.1061 5.74 12.1461 5.868C12.1941 6.012 12.2021 6.092 12.1701 6.108C12.1461 6.132 11.9741 6.088 11.6541 5.976C11.3341 5.864 11.1021 5.764 10.9581 5.676C10.7901 5.588 10.6141 5.6 10.4301 5.712C10.2541 5.816 9.90206 6.12 9.37406 6.624C8.65406 7.312 8.27006 7.656 8.22206 7.656C8.05406 7.656 8.09006 7.512 8.33006 7.224C8.54606 6.952 9.00606 6.468 9.71006 5.772C11.2221 4.276 11.8661 3.528 11.6421 3.528C11.4741 3.528 11.2021 3.636 10.8261 3.852C10.4501 4.06 10.1741 4.26 9.99806 4.452C9.87006 4.596 9.75006 4.664 9.63806 4.656C9.52606 4.64 9.47006 4.552 9.47006 4.392C9.47006 4.288 9.50206 4.2 9.56606 4.128C9.63006 4.048 9.76606 3.948 9.97406 3.828C10.3021 3.628 10.7181 3.416 11.2221 3.192ZM12.4941 7.176C12.5901 7.12 12.6661 7.08 12.7221 7.056C12.7781 7.024 12.8221 7.008 12.8541 7.008C12.8941 7.008 12.9181 7.02 12.9261 7.044C12.9341 7.068 12.9381 7.108 12.9381 7.164C12.9381 7.276 13.0501 7.488 13.2741 7.8C13.4581 8.064 13.5621 8.292 13.5861 8.484C13.6101 8.676 13.5541 8.916 13.4181 9.204C13.3141 9.444 13.1821 9.64 13.0221 9.792C12.8701 9.944 12.6701 10.076 12.4221 10.188C12.1101 10.332 11.7901 10.38 11.4621 10.332C11.1421 10.292 10.9101 10.168 10.7661 9.96C10.7501 9.936 10.7381 9.9 10.7301 9.852C10.7221 9.812 10.7141 9.76 10.7061 9.696C10.7061 9.632 10.7021 9.564 10.6941 9.492C10.6941 9.42 10.6941 9.344 10.6941 9.264C10.7021 9.184 10.7101 9.104 10.7181 9.024C10.7261 8.952 10.7341 8.884 10.7421 8.82C10.7501 8.756 10.7581 8.7 10.7661 8.652C10.7821 8.596 10.7981 8.556 10.8141 8.532C10.8701 8.428 11.0901 8.22 11.4741 7.908C11.8661 7.596 12.2061 7.352 12.4941 7.176ZM12.9741 8.04C12.8541 7.864 12.6581 7.804 12.3861 7.86C12.1141 7.916 11.9261 8.056 11.8221 8.28C11.7981 8.344 11.7461 8.408 11.6661 8.472C11.5941 8.536 11.5221 8.576 11.4501 8.592C11.2581 8.656 11.1461 8.784 11.1141 8.976C11.0741 9.144 11.0741 9.32 11.1141 9.504C11.1541 9.696 11.2181 9.828 11.3061 9.9C11.3941 9.972 11.5941 9.972 11.9061 9.9C12.2181 9.828 12.4581 9.724 12.6261 9.588C12.8581 9.404 13.0101 9.152 13.0821 8.832C13.1621 8.512 13.1261 8.248 12.9741 8.04ZM19.4386 1.176C19.5026 1.072 19.5986 1.052 19.7266 1.116C19.8626 1.18 19.9586 1.296 20.0146 1.464C20.0786 1.64 20.1186 2.328 20.1346 3.528C20.1506 4.728 20.1346 5.52 20.0866 5.904C20.0546 6.096 20.0226 6.216 19.9906 6.264C19.9666 6.312 19.9106 6.332 19.8226 6.324C19.7266 6.308 19.6666 6.2 19.6426 6C19.6266 5.8 19.6186 5.132 19.6186 3.996C19.6186 2.46 19.5786 1.62 19.4986 1.476C19.4266 1.34 19.4066 1.24 19.4386 1.176ZM15.6586 4.344C15.6746 3.672 15.7226 3.336 15.8026 3.336C15.9226 3.336 16.0066 3.432 16.0546 3.624C16.1026 3.808 16.1106 4.064 16.0786 4.392C16.0146 5.064 16.0906 5.4 16.3066 5.4C16.3946 5.4 17.1226 4.984 18.4906 4.152C18.8586 3.92 19.0666 3.824 19.1146 3.864C19.1706 3.896 19.1986 3.972 19.1986 4.092C19.1986 4.212 19.1706 4.272 19.1146 4.272C19.0586 4.272 18.8026 4.424 18.3466 4.728C17.9946 4.96 17.7266 5.136 17.5426 5.256C17.3586 5.376 17.1706 5.488 16.9786 5.592C16.7946 5.688 16.6626 5.752 16.5826 5.784C16.5026 5.808 16.4106 5.82 16.3066 5.82C16.2106 5.812 16.1346 5.788 16.0786 5.748C16.0226 5.708 15.9506 5.644 15.8626 5.556C15.7586 5.468 15.6986 5.364 15.6826 5.244C15.6666 5.124 15.6586 4.824 15.6586 4.344ZM19.1866 6.576C19.4106 6.496 19.5866 6.468 19.7146 6.492C19.8506 6.516 19.9826 6.6 20.1106 6.744C20.2306 6.888 20.2866 7.044 20.2786 7.212C20.2706 7.38 20.1906 7.668 20.0386 8.076C19.8866 8.468 19.8386 8.664 19.8946 8.664C19.9106 8.664 19.9306 8.656 19.9546 8.64C20.0026 8.608 20.1266 8.56 20.3266 8.496C20.5346 8.432 20.6306 8.448 20.6146 8.544C20.5986 8.64 20.4666 8.772 20.2186 8.94C19.9866 9.092 19.7346 9.296 19.4626 9.552C19.0626 9.904 18.8506 9.972 18.8266 9.756C18.8266 9.676 18.7546 9.632 18.6106 9.624C18.4746 9.616 18.3666 9.652 18.2866 9.732C18.1266 9.892 17.8226 9.592 17.3746 8.832C17.2626 8.64 17.1426 8.416 17.0146 8.16C16.7986 7.744 16.7066 7.492 16.7386 7.404C16.8026 7.228 16.9066 7.212 17.0506 7.356C17.1306 7.436 17.2026 7.544 17.2666 7.68L17.4346 8.076L17.5666 7.836C17.6066 7.764 17.6946 7.664 17.8306 7.536C17.9666 7.4 18.1146 7.268 18.2746 7.14C18.4426 7.012 18.6106 6.896 18.7786 6.792C18.9546 6.68 19.0906 6.608 19.1866 6.576ZM19.8226 7.128C19.7586 6.872 19.5306 6.84 19.1386 7.032C18.7866 7.208 18.4386 7.5 18.0946 7.908L17.6986 8.388L17.8666 8.688C17.8986 8.744 17.9466 8.832 18.0106 8.952C18.0746 9.064 18.1146 9.132 18.1306 9.156C18.1866 9.276 18.2666 9.332 18.3706 9.324C18.4746 9.324 18.6426 9.256 18.8746 9.12C18.9866 9.056 19.0746 8.992 19.1386 8.928C19.2026 8.856 19.2626 8.764 19.3186 8.652C19.3826 8.54 19.4626 8.364 19.5586 8.124C19.7746 7.604 19.8626 7.272 19.8226 7.128Z" fill="#FCB321"/>
</svg>
