<svg width="20" height="27" viewBox="0 0 20 27" fill="none" xmlns="http://www.w3.org/2000/svg">
<path fill-rule="evenodd" clip-rule="evenodd" d="M0.993652 10.0057C0.993652 4.91719 5.16728 0.777832 10.2979 0.777832C15.4285 0.777832 19.6022 4.91719 19.6022 10.0057C19.6022 15.5029 13.7272 23.0829 11.3081 25.9699C10.7764 26.6027 9.80611 26.6027 9.27444 25.9699C6.86863 23.0829 0.993652 15.5029 0.993652 10.0057ZM16.9853 9.79681C16.9853 13.4212 14.0564 16.3593 10.4433 16.3593C6.83021 16.3593 3.90123 13.4212 3.90123 9.79681C3.90123 6.17244 6.83021 3.23431 10.4433 3.23431C14.0564 3.23431 16.9853 6.17244 16.9853 9.79681Z" fill="#FA9E1E"/>
</svg>
